<?xml version="1.0" standalone="no"?>
<!DOCTYPE svg PUBLIC "-//W3C//DTD SVG 20010904//EN"
 "http://www.w3.org/TR/2001/REC-SVG-20010904/DTD/svg10.dtd">
<svg version="1.0" xmlns="http://www.w3.org/2000/svg"
 width="1536.000000pt" height="1536.000000pt" viewBox="0 0 1536.000000 1536.000000"
 preserveAspectRatio="xMidYMid meet">

<g transform="translate(0.000000,1536.000000) scale(0.100000,-0.100000)"
fill="#000000" stroke="none">
<path d="M3570 9883 c-14 -3 -29 -9 -34 -14 -6 -5 -19 -9 -30 -9 -32 0 -116
-53 -170 -106 -50 -49 -112 -138 -161 -234 -16 -30 -34 -62 -41 -70 -11 -14
-39 -64 -80 -140 -11 -19 -22 -37 -25 -40 -4 -3 -21 -32 -38 -65 -18 -33 -50
-89 -72 -125 -22 -36 -44 -77 -50 -92 -6 -16 -14 -28 -19 -28 -4 0 -10 -8 -13
-17 -3 -10 -20 -40 -36 -68 -17 -27 -34 -57 -38 -65 -29 -56 -88 -156 -95
-158 -4 -2 -8 -11 -8 -20 0 -8 -6 -23 -14 -31 -18 -21 -74 -118 -87 -153 -6
-16 -14 -28 -19 -28 -4 0 -10 -8 -13 -17 -7 -20 -49 -96 -64 -115 -18 -22 -78
-141 -99 -193 -18 -48 -19 -84 -19 -1031 0 -878 2 -984 16 -1015 58 -124 78
-155 126 -203 50 -49 116 -89 203 -124 51 -21 362 -29 377 -11 6 8 13 50 17
94 8 120 26 210 60 300 45 120 65 163 76 170 6 3 10 13 10 21 0 8 5 20 10 27
6 7 36 48 67 92 58 81 183 215 201 215 5 0 15 7 22 15 21 25 141 100 215 134
39 18 78 36 87 42 10 5 26 9 36 9 10 0 22 4 28 10 13 13 77 26 244 52 130 19
139 19 250 3 63 -9 129 -20 146 -26 17 -5 41 -9 55 -9 13 0 33 -6 44 -13 11
-7 38 -19 60 -26 51 -16 169 -74 173 -83 2 -5 10 -8 18 -8 21 0 204 -152 268
-221 63 -70 151 -200 188 -279 46 -99 58 -130 58 -150 0 -10 4 -21 9 -24 4 -3
11 -28 15 -55 4 -28 10 -52 15 -55 4 -3 11 -56 14 -117 5 -74 11 -115 19 -121
15 -9 3808 -11 3832 -2 13 5 16 22 16 78 0 84 30 234 67 331 28 72 91 203 102
210 6 3 11 15 11 26 0 10 4 19 9 19 5 0 23 22 41 49 43 68 210 226 296 281 38
25 79 51 89 58 11 6 27 15 35 18 8 3 31 13 50 21 19 9 42 19 50 22 19 9 114
37 165 50 22 5 93 18 158 27 113 17 123 17 230 0 143 -22 203 -35 247 -52 19
-7 59 -21 88 -30 29 -9 55 -20 58 -25 3 -5 14 -9 25 -9 10 0 19 -4 19 -9 0 -5
10 -13 22 -17 21 -6 97 -52 108 -65 3 -3 30 -24 60 -46 166 -123 320 -340 384
-543 10 -30 21 -64 26 -75 13 -30 40 -214 40 -268 0 -40 3 -47 23 -52 13 -4
201 -5 418 -2 419 4 399 1 512 56 59 29 140 101 175 155 37 58 52 86 52 101 0
6 7 26 15 42 13 27 15 156 15 1004 0 1059 4 979 -55 1149 -12 36 -34 103 -49
150 -15 47 -33 101 -40 120 -8 19 -21 58 -29 85 -9 28 -21 66 -28 85 -29 84
-58 169 -75 225 -10 33 -22 64 -26 70 -4 5 -8 17 -8 27 0 9 -6 32 -14 50 -8
18 -21 56 -29 83 -16 50 -19 60 -58 170 -11 33 -24 74 -29 90 -4 17 -17 55
-29 85 -11 30 -21 61 -21 68 0 8 -18 50 -40 95 -30 60 -57 98 -101 140 -34 31
-65 57 -70 57 -6 0 -22 9 -37 20 -15 11 -56 29 -91 40 -63 20 -75 20 -4275 19
-2316 -1 -4222 -4 -4236 -6z m783 -358 c54 -22 107 -74 128 -123 18 -41 19
-78 19 -572 0 -496 -1 -531 -19 -572 -10 -24 -34 -57 -52 -75 -69 -65 -46 -63
-715 -63 l-606 0 -48 26 c-28 15 -62 46 -81 73 -32 43 -34 51 -34 126 0 87 8
106 113 278 23 37 42 69 42 72 0 3 18 34 40 70 22 36 40 68 40 71 0 3 15 29
34 57 18 29 48 80 66 112 18 33 43 78 56 100 12 22 56 98 98 169 42 70 76 130
76 133 0 19 76 94 112 111 41 20 60 21 369 22 268 0 333 -3 362 -15z m2412 -6
c55 -26 108 -85 123 -138 17 -54 17 -1054 0 -1102 -19 -57 -61 -107 -111 -134
l-49 -25 -779 0 c-764 0 -781 0 -820 20 -22 11 -53 35 -70 53 -60 63 -59 49
-59 643 0 351 4 545 10 549 6 3 10 14 10 24 0 25 67 90 115 112 37 16 90 18
813 18 767 1 773 1 817 -20z m2388 6 c46 -19 91 -58 119 -103 l23 -37 0 -555
0 -555 -33 -51 c-23 -37 -47 -59 -83 -78 l-51 -26 -781 0 -782 0 -52 30 c-39
22 -61 44 -83 83 l-30 52 0 543 c0 606 -3 578 72 649 68 64 27 61 874 62 656
1 777 -1 807 -14z m2318 3 c22 -6 56 -26 77 -44 50 -43 61 -67 107 -229 9 -33
21 -71 25 -85 5 -14 16 -52 25 -85 10 -33 23 -78 30 -100 7 -22 18 -60 25 -85
7 -25 18 -63 25 -85 7 -22 18 -60 25 -85 7 -25 18 -63 25 -85 7 -22 20 -67 30
-100 9 -33 22 -73 28 -90 6 -16 11 -64 11 -105 0 -84 -13 -117 -66 -166 -72
-68 -4 -64 -985 -64 l-888 0 -53 30 c-31 18 -63 47 -80 73 l-27 42 -3 520 c-2
286 0 543 3 572 5 42 14 61 48 99 77 88 25 82 851 83 526 1 739 -2 767 -11z"/>
<path d="M4135 6664 c-131 -18 -314 -82 -346 -120 -6 -8 -16 -14 -21 -14 -22
0 -128 -83 -188 -147 -120 -127 -208 -280 -243 -423 -51 -211 -51 -312 1 -505
8 -33 19 -65 23 -70 4 -6 15 -32 24 -58 19 -55 78 -157 106 -182 10 -10 19
-23 19 -29 0 -16 134 -145 195 -188 72 -51 194 -118 214 -118 9 0 22 -5 28
-11 12 -12 57 -23 168 -42 106 -18 328 -10 380 13 11 4 35 11 54 14 78 14 247
109 345 194 60 53 176 181 176 195 0 4 13 25 29 47 16 22 39 66 51 97 13 32
28 72 35 88 47 114 62 369 30 502 -30 123 -90 268 -131 314 -8 8 -14 20 -14
25 0 5 -10 20 -23 34 -12 14 -40 47 -61 73 -57 70 -183 167 -278 214 -128 63
-205 86 -344 102 -105 13 -109 13 -229 -5z m231 -495 c89 -16 161 -56 235
-129 61 -60 80 -90 120 -190 20 -51 18 -231 -4 -293 -41 -117 -143 -227 -257
-280 -60 -28 -74 -30 -185 -31 -97 -1 -130 3 -170 18 -73 29 -119 60 -175 118
-207 215 -167 562 85 723 106 68 218 88 351 64z"/>
<path d="M10425 6669 c-22 -4 -58 -8 -80 -9 -38 -1 -138 -29 -152 -44 -3 -3
-16 -6 -28 -6 -12 0 -30 -7 -41 -15 -10 -8 -24 -15 -30 -15 -7 0 -47 -21 -89
-47 -119 -73 -307 -267 -329 -340 -4 -13 -12 -23 -17 -23 -5 0 -9 -8 -9 -19 0
-10 -7 -24 -15 -31 -8 -7 -15 -21 -15 -31 0 -10 -4 -21 -10 -24 -5 -3 -10 -19
-10 -34 0 -15 -5 -32 -11 -38 -40 -40 -57 -355 -26 -483 16 -68 34 -123 48
-152 5 -10 9 -24 9 -32 0 -7 7 -19 15 -26 8 -7 15 -21 15 -31 0 -11 4 -19 9
-19 5 0 11 -10 15 -22 3 -13 17 -36 31 -52 14 -16 25 -33 25 -37 0 -18 138
-154 207 -206 76 -56 197 -123 223 -123 9 0 24 -6 35 -14 11 -7 36 -16 55 -20
100 -19 193 -30 260 -30 117 0 289 29 313 53 6 6 20 11 30 11 26 0 158 72 227
123 83 61 175 160 234 251 58 89 106 187 106 214 0 10 4 22 9 28 21 20 41 162
41 284 0 148 -17 239 -67 357 -7 17 -13 36 -13 42 0 6 -4 11 -10 11 -5 0 -10
8 -10 19 0 10 -7 24 -15 31 -8 7 -15 17 -15 22 0 46 -254 318 -298 318 -6 0
-12 4 -14 9 -4 12 -157 91 -175 91 -7 0 -21 4 -31 9 -30 17 -124 39 -213 50
-95 12 -126 12 -184 0z m181 -500 c90 -17 161 -56 234 -129 97 -97 140 -199
140 -330 0 -183 -111 -355 -279 -433 -62 -28 -74 -30 -186 -31 -163 -1 -229
24 -333 126 -99 97 -142 199 -142 338 0 143 45 246 149 343 117 107 254 146
417 116z"/>
</g>
</svg>
